<svg width="96" height="96" xmlns="http://www.w3.org/2000/svg" xmlns:xlink="http://www.w3.org/1999/xlink" xml:space="preserve" overflow="hidden"><g transform="translate(-592 -312)"><path d="M640 328C647.732 328 654 334.268 654 342 654 349.732 647.732 356 640 356 632.268 356 626 349.732 626 342 626.008 334.271 632.271 328.008 640 328M640 326C631.163 326 624 333.163 624 342 624 350.837 631.163 358 640 358 648.837 358 656 350.837 656 342 656 333.163 648.837 326 640 326Z" stroke="#000000" stroke-width="4"/><path d="M672 394 670 394 670 378.5C669.952 376.376 668.952 374.386 667.275 373.081 662.889 369.716 657.868 367.273 652.513 365.9 648.459 364.652 644.242 364.012 640 364 635.759 364.074 631.548 364.713 627.476 365.9 622.177 367.452 617.178 369.886 612.688 373.1 611.028 374.406 610.042 376.388 610 378.5L610 394 608 394 608 378.5C608.05 375.769 609.326 373.205 611.476 371.519 616.167 368.151 621.395 365.601 626.937 363.977 631.184 362.74 635.577 362.075 640 362 644.432 362.011 648.838 362.678 653.075 363.979 658.685 365.424 663.943 367.991 668.533 371.525 670.678 373.211 671.952 375.772 672 378.5Z" stroke="#000000" stroke-width="4"/></g></svg>